<svg width="943" height="943" viewBox="0 0 943 943" fill="none" xmlns="http://www.w3.org/2000/svg">
<mask id="mask0_962_2" style="mask-type:alpha" maskUnits="userSpaceOnUse" x="0" y="0" width="943" height="943">
<ellipse cx="471.459" cy="471.346" rx="470.895" ry="471.035" fill="#D9D9D9"/>
</mask>
<g mask="url(#mask0_962_2)">
<path d="M-381 942.422H1323.02V-40.9961H-381V942.422Z" fill="#103A31"/>
<mask id="mask1_962_2" style="mask-type:luminance" maskUnits="userSpaceOnUse" x="-381" y="-41" width="1705" height="984">
<path d="M-381 -40.9971H1323.02V942.422H-381V-40.9971Z" fill="white"/>
</mask>
<g mask="url(#mask1_962_2)">
<path d="M554.619 464.622C543.917 464.622 536.261 461.855 531.651 456.324C527.037 450.794 524.732 442.498 524.732 431.436V334.249C524.732 314.935 520.21 299.658 511.174 288.42C502.133 277.184 489.035 271.563 471.878 271.563C448.635 271.563 428.248 279.728 410.724 296.057V461.461H355.656V295.794C355.656 279.991 351.687 263.398 343.757 246.015C354.825 236.888 367.83 232.319 382.773 232.319C396.237 232.319 404.449 244.085 407.403 267.612H408.233C434.245 244.085 463.578 232.319 496.231 232.319C521.134 232.319 541.24 240.049 556.555 255.498C571.867 270.949 579.522 290.879 579.522 315.283V407.468C579.522 426.957 582.843 442.235 589.486 453.296C579.706 460.846 568.083 464.622 554.619 464.622Z" fill="#F6D2B2"/>
<path d="M707.246 465.148C683.074 465.148 662.368 460.892 645.12 452.375C627.869 443.859 614.357 431.479 604.582 415.237C594.799 398.997 589.916 379.548 589.916 356.897C589.916 332.316 595.173 310.673 605.688 291.973C616.205 273.275 630.177 258.747 647.611 248.384C665.043 238.026 686.492 232.845 711.949 232.845C744.231 232.845 768.216 240.483 783.896 255.761C799.576 271.035 807.418 291.053 807.418 315.81C807.418 346.19 790.261 361.376 755.949 361.376H658.818C662.693 338.026 677.263 326.344 702.54 326.344H740.451C755.209 326.344 762.59 320.55 762.59 308.964C762.59 283.329 745.245 270.508 710.564 270.508C690.824 270.508 674.73 277.62 662.277 291.844C649.826 306.066 643.599 326.608 643.599 353.474C643.599 374.194 650.147 391.27 663.248 404.702C676.343 418.134 694.145 424.85 716.653 424.85C731.596 424.85 748.201 420.373 766.462 411.418C772.366 408.434 777.713 406.941 782.513 406.941C792.657 406.941 800.501 413.438 806.035 426.432C777.991 452.241 745.06 465.148 707.246 465.148Z" fill="#F6D2B2"/>
<path d="M266.047 232.777C226.38 232.777 194.559 244.85 170.577 268.99C146.594 293.136 134.604 321.1 134.604 352.878C134.604 385.712 145.994 412.621 168.778 433.601C171.327 435.948 173.96 438.153 176.666 440.234C176.77 439.888 184.568 413.92 214.688 404.738C213.849 403.851 213.024 402.943 212.226 401.998C199.399 386.813 192.994 368.508 192.994 347.082C192.994 324.786 198.942 306.614 210.841 292.562C222.74 278.519 239.57 271.494 261.341 271.494C274.805 271.494 286.801 275.095 297.315 282.292C307.83 289.494 315.117 293.09 319.178 293.09C329.692 293.09 339.834 282.819 349.615 262.274C326.554 242.613 298.701 232.777 266.047 232.777Z" fill="#F6D2B2"/>
<path d="M84.3445 536.986C99.7682 536.986 107.697 545.362 107.697 545.362L100.638 556.31C100.638 556.31 93.6682 550.256 85.0425 550.256C73.1039 550.256 67.4406 558.631 67.4406 567.173C67.4406 575.965 73.5396 585.005 85.0425 585.005C94.4523 585.005 101.597 577.706 101.597 577.706L109.439 588.322C109.439 588.322 100.638 598.273 84.3445 598.273C64.8268 598.273 51.6694 585.087 51.6694 567.504C51.6694 550.256 65.6109 536.986 84.3445 536.986Z" fill="#F6D2B2"/>
<path d="M136.096 537.981H151.344V561.7H174V537.981H189.248V597.278H174V574.059H151.344V597.278H136.096V537.981Z" fill="#F6D2B2"/>
<path d="M221.306 537.982H236.555V597.279H221.306V537.982Z" fill="#F6D2B2"/>
<path d="M268.616 537.981H284.038L301.292 565.682C303.731 569.58 306.519 575.8 306.519 575.8H306.693C306.693 575.8 305.997 569.413 305.997 565.682V537.981H321.245V597.278H305.91L288.57 569.663C286.129 565.764 283.341 559.544 283.341 559.544H283.167C283.167 559.544 283.864 565.93 283.864 569.663V597.278H268.616V537.981Z" fill="#F6D2B2"/>
<path d="M353.303 537.981H368.726L385.979 565.682C388.419 569.58 391.207 575.8 391.207 575.8H391.38C391.38 575.8 390.684 569.413 390.684 565.682V537.981H405.933V597.278H390.597L373.258 569.663C370.817 565.764 368.029 559.544 368.029 559.544H367.855C367.855 559.544 368.552 565.93 368.552 569.663V597.278H353.303V537.981Z" fill="#F6D2B2"/>
<path d="M437.99 537.982H453.239V597.279H437.99V537.982Z" fill="#F6D2B2"/>
<path d="M522.677 537.981H538.1L555.353 565.682C557.793 569.58 560.581 575.8 560.581 575.8H560.754C560.754 575.8 560.058 569.413 560.058 565.682V537.981H575.307V597.278H559.971L542.632 569.663C540.191 565.764 537.403 559.544 537.403 559.544H537.229C537.229 559.544 537.926 565.93 537.926 569.663V597.278H522.677V537.981Z" fill="#F6D2B2"/>
<path d="M628.798 551.499C628.798 551.499 627.405 557.969 626.271 561.701L622.699 573.228H634.985L631.5 561.701C630.366 557.969 628.973 551.499 628.973 551.499H628.798ZM638.557 584.84H619.126L615.379 597.279H599.695L620.869 537.982H636.902L658.075 597.279H642.392L638.557 584.84Z" fill="#F6D2B2"/>
<path d="M685.692 537.981H702.247L711.308 563.027C712.703 566.842 714.446 572.814 714.446 572.814H714.62C714.62 572.814 716.363 566.842 717.757 563.027L726.819 537.981H743.374L748.428 597.278H733.179L731.263 570.575C730.914 566.096 731.263 560.622 731.263 560.622H731.088C731.088 560.622 728.997 566.842 727.603 570.575L721.069 587.742H707.998L701.463 570.575C700.068 566.842 697.977 560.622 697.977 560.622H697.802C697.802 560.622 698.151 566.096 697.802 570.575L695.886 597.278H680.55L685.692 537.981Z" fill="#F6D2B2"/>
<path d="M802.967 584.84C807.411 584.84 809.59 581.937 809.59 578.62C809.59 575.303 807.498 572.565 803.054 572.565H793.818V584.84H802.967ZM801.66 560.955C805.494 560.955 807.149 558.3 807.149 555.481C807.149 552.744 805.494 550.422 801.399 550.422H793.818V560.955H801.66ZM778.569 537.982H801.486C813.946 537.982 822.66 543.29 822.66 553.491C822.66 558.466 820.132 563.525 815.428 566.097V566.262C822.573 568.336 825.187 574.39 825.187 579.616C825.187 592.552 813.859 597.279 801.486 597.279H778.569V537.982Z" fill="#F6D2B2"/>
<path d="M853.411 537.982H868.66V597.279H853.411V537.982Z" fill="#F6D2B2"/>
<path d="M223.649 632.584H240.292V635.064H226.549V645.304H237.77V647.784H226.549V658.224H241.049V660.704H223.649V632.584Z" fill="#F6D2B2"/>
<path d="M268.659 632.584H271.475L286.564 652.824C287.571 654.225 289.001 656.624 289.001 656.624H289.085C289.085 656.624 288.833 654.305 288.833 652.824V632.584H291.733V660.704H288.917L273.829 640.464C272.821 639.065 271.391 636.664 271.391 636.664H271.307C271.307 636.664 271.559 638.985 271.559 640.464V660.704H268.659V632.584Z" fill="#F6D2B2"/>
<path d="M327.959 635.064H317.326V632.584H341.449V635.064H330.858V660.704H327.959V635.064Z" fill="#F6D2B2"/>
<path d="M421.972 646.383C425.543 646.383 427.814 644.184 427.814 640.664C427.814 638.344 426.847 636.623 425.124 635.743C424.242 635.304 423.19 635.063 420.922 635.063H414.953V646.383H421.972ZM412.053 632.583H420.796C423.821 632.583 425.166 632.864 426.343 633.344C429.117 634.503 430.797 637.183 430.797 640.584C430.797 644.384 428.528 647.303 425.208 648.184V648.264C425.208 648.264 425.501 648.624 425.965 649.384L432.395 660.704H429.075L422.393 648.864H414.953V660.704H412.053V632.583Z" fill="#F6D2B2"/>
<path d="M469.293 647.184C473.243 647.184 475.806 644.904 475.806 641.064C475.806 637.264 473.243 635.064 469.335 635.064H462.358V647.184H469.293ZM459.458 632.584H469.671C474.967 632.584 478.791 635.863 478.791 641.064C478.791 646.304 474.967 649.665 469.671 649.665H462.358V660.704H459.458V632.584Z" fill="#F6D2B2"/>
<path d="M515.522 646.383C519.093 646.383 521.363 644.184 521.363 640.664C521.363 638.344 520.397 636.623 518.674 635.743C517.791 635.304 516.74 635.063 514.471 635.063H508.502V646.383H515.522ZM505.603 632.583H514.345C517.371 632.583 518.716 632.864 519.893 633.344C522.666 634.503 524.346 637.183 524.346 640.584C524.346 644.384 522.078 647.303 518.758 648.184V648.264C518.758 648.264 519.051 648.624 519.514 649.384L525.944 660.704H522.624L515.942 648.864H508.502V660.704H505.603V632.583Z" fill="#F6D2B2"/>
<path d="M553.009 632.584H555.908V660.704H553.009V632.584Z" fill="#F6D2B2"/>
<path d="M585.033 655.466C585.033 655.466 588.1 658.546 592.766 658.546C596.002 658.546 598.65 656.706 598.65 653.665C598.65 646.584 583.898 648.385 583.898 639.665C583.898 635.625 587.639 632.105 593.102 632.105C598.229 632.105 601.003 634.825 601.003 634.825L599.574 637.145C599.574 637.145 596.969 634.745 593.102 634.745C589.32 634.745 586.882 637.105 586.882 639.586C586.882 646.264 601.633 644.346 601.633 653.585C601.633 657.786 598.229 661.186 592.682 661.186C586.63 661.186 583.309 657.586 583.309 657.586L585.033 655.466Z" fill="#F6D2B2"/>
<path d="M629.118 632.584H645.76V635.064H632.018V645.304H643.239V647.784H632.018V658.224H646.518V660.704H629.118V632.584Z" fill="#F6D2B2"/>
<path d="M367 632H383.642V634.48H369.9V644.72H381.121V647.2H369.9V657.64H384.4V660.12H367V632Z" fill="#F6D2B2"/>
<path d="M673.666 655.466C673.666 655.466 676.733 658.546 681.399 658.546C684.635 658.546 687.283 656.706 687.283 653.665C687.283 646.584 672.532 648.385 672.532 639.665C672.532 635.625 676.272 632.105 681.736 632.105C686.863 632.105 689.637 634.825 689.637 634.825L688.208 637.145C688.208 637.145 685.602 634.745 681.736 634.745C677.953 634.745 675.516 637.105 675.516 639.586C675.516 646.264 690.266 644.346 690.266 653.585C690.266 657.786 686.863 661.186 681.315 661.186C675.263 661.186 671.942 657.586 671.942 657.586L673.666 655.466Z" fill="#F6D2B2"/>
<path d="M305.606 420.391C305.606 420.391 317.592 417.065 324.585 406.883C324.585 406.883 316.923 418.457 306.572 423.101L305.606 420.391Z" fill="#103A31"/>
<path d="M335.01 385.412C323.053 408.508 289.994 400.475 241.111 408.676C200.172 415.544 189.951 437.772 187.707 444.821C187.707 444.821 187.698 444.928 187.726 444.927C189.91 444.89 191.553 444.678 193.042 444.269L193.041 444.273L206.247 441.927C208.153 441.609 210.15 441.274 212.235 440.921C212.301 440.91 212.358 440.871 212.391 440.817L219.663 428.506C219.756 428.349 219.923 428.244 220.111 428.224L227.041 427.487C227.247 427.464 227.429 427.347 227.527 427.172L229.878 422.079C229.013 421.406 228.449 420.394 228.449 419.247C228.449 417.217 230.178 415.572 232.31 415.572C234.443 415.572 236.172 417.217 236.172 419.247C236.172 421.197 234.573 422.776 232.556 422.898L229.703 429.963C229.59 430.196 229.357 430.356 229.089 430.385L222.867 431.046C222.71 431.062 222.572 431.152 222.497 431.285L217.72 439.765C217.665 439.863 217.75 439.98 217.865 439.959C224.636 438.793 232.009 437.488 239.475 436.104C239.666 436.068 239.835 435.965 239.948 435.815L248.002 425.044C246.943 424.292 246.248 423.1 246.248 421.746C246.248 419.467 248.189 417.619 250.584 417.619C252.978 417.619 254.92 419.467 254.92 421.746C254.92 423.97 253.067 425.77 250.754 425.857L245.259 434.781C245.194 434.885 245.29 435.014 245.415 434.99C250.215 434.079 254.994 433.141 259.618 432.196C259.747 432.17 259.862 432.101 259.944 432.003L266.209 424.481C265.493 423.927 265.025 423.092 265.025 422.144C265.025 420.475 266.447 419.122 268.201 419.122C269.955 419.122 271.376 420.475 271.376 422.144C271.376 423.749 270.059 425.049 268.4 425.148L264.187 431.077C264.136 431.149 264.205 431.244 264.295 431.225C267.499 430.549 270.6 429.872 273.55 429.199C273.75 429.153 273.921 429.035 274.031 428.87L281.52 417.674C281.612 417.537 281.76 417.442 281.928 417.413L286.614 416.599C286.767 416.572 286.905 416.495 287.003 416.38L289.543 413.447C288.965 412.899 288.607 412.142 288.607 411.305C288.607 409.636 290.029 408.283 291.783 408.283C293.537 408.283 294.958 409.636 294.958 411.305C294.958 412.975 293.537 414.328 291.783 414.328C291.653 414.328 291.529 414.306 291.402 414.292L288.992 418.605C288.92 418.733 288.788 418.819 288.637 418.839L283.823 419.45C283.656 419.471 283.509 419.562 283.421 419.698L278.132 427.882C278.065 427.987 278.169 428.118 278.295 428.088C283.686 426.789 288.402 425.52 292.079 424.322C293.372 423.901 294.672 423.509 295.973 423.114L303.222 413.771C302.635 413.143 302.267 412.326 302.267 411.418C302.267 409.457 303.938 407.868 305.998 407.868C308.058 407.868 309.728 409.457 309.728 411.418C309.728 413.38 308.058 414.97 305.998 414.97C305.632 414.97 305.286 414.904 304.952 414.811L300.424 421.817C301.265 421.581 302.103 421.334 302.948 421.106L305.607 420.392C305.607 420.392 317.592 417.066 324.585 406.884C324.585 406.884 318.556 415.984 309.97 421.284L315.736 424.185C316.359 423.717 317.136 423.426 317.991 423.426C320.013 423.426 321.652 424.986 321.652 426.91C321.652 428.835 320.013 430.394 317.991 430.394C315.97 430.394 314.331 428.835 314.331 426.91C314.331 426.645 314.369 426.389 314.427 426.14L307.088 423.134C306.925 423.066 306.743 423.055 306.572 423.101C305.163 423.483 298.223 425.359 288.839 427.793C288.783 427.808 288.773 427.882 288.826 427.905L303.005 434.441C303.629 434.02 304.387 433.767 305.211 433.767C307.324 433.767 309.038 435.398 309.038 437.41C309.038 439.422 307.324 441.053 305.211 441.053C303.097 441.053 301.383 439.422 301.383 437.41C301.383 436.902 301.494 436.419 301.692 435.979L284.792 428.914C284.719 428.884 284.638 428.878 284.562 428.898L269.553 432.682C269.508 432.693 269.503 432.752 269.546 432.77L279.386 436.999C279.501 437.049 279.633 437.052 279.75 437.007L285.094 434.989C285.214 434.943 285.351 434.958 285.457 435.028L292.78 439.498C293.062 439.428 293.353 439.38 293.659 439.38C295.6 439.38 297.175 440.877 297.175 442.726C297.175 444.574 295.6 446.072 293.659 446.072C291.716 446.072 290.143 444.574 290.143 442.726C290.143 442.05 290.357 441.423 290.72 440.896L285.08 437.832C284.977 437.77 284.85 437.757 284.735 437.798L279.199 439.802C279.07 439.849 278.927 439.844 278.802 439.79L265.092 433.85C265.02 433.819 264.941 433.812 264.865 433.83C262.302 434.453 259.732 435.067 257.191 435.665C257.13 435.679 257.121 435.757 257.177 435.785L266.166 440.259C266.797 439.918 267.514 439.708 268.29 439.708C270.685 439.708 272.626 441.556 272.626 443.835C272.626 446.114 270.685 447.962 268.29 447.962C265.896 447.962 263.954 446.114 263.954 443.835C263.954 443.24 264.093 442.678 264.33 442.167L252.857 436.748C252.786 436.715 252.705 436.706 252.63 436.724C244.645 438.555 237.177 440.134 231.403 441.104C231.299 441.122 231.284 441.255 231.379 441.3L248.638 449.413C248.997 449.281 249.384 449.201 249.792 449.201C251.561 449.201 252.994 450.565 252.994 452.247C252.994 453.93 251.561 455.294 249.792 455.294C248.024 455.294 246.591 453.93 246.591 452.247C246.591 451.771 246.716 451.326 246.921 450.924L226.183 442.051C226.095 442.013 225.996 442.002 225.902 442.018C219.777 443.034 213.971 444.004 208.797 444.87L201.167 446.145C195.189 447.105 195.145 446.305 188.328 448.313C188.259 448.334 188.376 448.584 188.376 448.584C189.334 449.563 190.964 450.902 193.63 452.308H193.627C193.632 452.31 193.636 452.312 193.641 452.314C195.563 453.328 198.028 454.376 201.17 455.353C246.818 473.071 276.937 470.373 295.98 462.631C299.109 461.403 301.768 460.061 303.979 458.77C313.399 453.434 319.104 447.151 322.049 443.201C347.238 414.664 335.01 385.412 335.01 385.412Z" fill="#F6D2B2"/>
</g>
</g>
</svg>
