<svg width="135" height="75" viewBox="0 0 135 75" fill="none" xmlns="http://www.w3.org/2000/svg">
<g clip-path="url(#clip0_161_389)">
<path d="M83.1081 40.3303C81.3398 40.3303 80.0745 39.8493 79.3123 38.8889C78.5501 37.9285 78.169 36.4888 78.169 34.5681V17.6948C78.169 14.3411 77.4221 11.6887 75.9282 9.73916C74.4343 7.78794 72.2696 6.81233 69.4343 6.81233C65.5928 6.81233 62.2256 8.23001 59.3293 11.0654V39.7815H50.2304V11.0196C50.2304 8.27575 49.5749 5.39634 48.2639 2.37805C50.0932 0.792683 52.2409 0 54.7104 0C56.936 0 58.2927 2.04268 58.7805 6.12636H58.9177C63.2165 2.04268 68.064 0 73.4587 0C77.5745 0 80.896 1.34146 83.4265 4.02439C85.957 6.70732 87.2222 10.1677 87.2222 14.4038V30.4082C87.2222 33.7923 87.771 36.4448 88.8686 38.3638C87.2527 39.6748 85.332 40.3303 83.1064 40.3303H83.1081Z" fill="#F5D2B2"/>
<path d="M108.328 40.4218C104.334 40.4218 100.913 39.6833 98.0623 38.2047C95.2117 36.726 92.9793 34.5766 91.3635 31.7565C89.7476 28.9364 88.9397 25.5607 88.9397 21.6278C88.9397 17.3595 89.8086 13.6027 91.5464 10.3558C93.2842 7.10881 95.5928 4.58679 98.4739 2.78801C101.355 0.989234 104.898 0.0898438 109.106 0.0898438C114.439 0.0898438 118.403 1.41606 120.994 4.0685C123.586 6.72094 124.881 10.1949 124.881 14.4936C124.881 19.768 122.046 22.4035 116.377 22.4035H100.327C100.967 18.3503 103.374 16.3212 107.551 16.3212H113.814C116.253 16.3212 117.473 15.3151 117.473 13.3029C117.473 8.8517 114.607 6.62609 108.875 6.62609C105.613 6.62609 102.954 7.86085 100.896 10.3304C98.8381 12.7999 97.81 16.3653 97.81 21.0299C97.81 24.6274 98.8923 27.5915 101.057 29.9239C103.222 32.2562 106.162 33.4215 109.881 33.4215C112.351 33.4215 115.095 32.644 118.111 31.0892C119.087 30.5709 119.971 30.3117 120.764 30.3117C122.441 30.3117 123.736 31.4398 124.651 33.6959C120.017 38.1759 114.575 40.4167 108.327 40.4167L108.328 40.4218Z" fill="#F5D2B2"/>
<path d="M35.4234 0.0800781C28.8686 0.0800781 23.6111 2.17527 19.6477 6.36734C15.6843 10.5594 13.7026 15.4138 13.7026 20.9303C13.7026 26.4469 15.5844 31.303 19.3496 34.9446C19.7713 35.3528 20.2049 35.7356 20.6538 36.0963C20.6707 36.0354 21.9597 31.5282 26.936 29.9344C26.7971 29.7803 26.6616 29.6228 26.5295 29.4585C24.4106 26.823 23.352 23.6438 23.352 19.9243C23.352 16.2047 24.3343 12.8985 26.3008 10.4595C28.2673 8.02215 31.0484 6.80095 34.646 6.80095C36.8716 6.80095 38.8533 7.42595 40.5911 8.67595C42.3289 9.92595 43.5332 10.5509 44.2039 10.5509C45.9417 10.5509 47.6169 8.76741 49.2327 5.20034C45.4218 1.7874 40.8198 0.0800781 35.4234 0.0800781Z" fill="#F5D2B2"/>
<path d="M5.39973 52.8933C7.94885 52.8933 9.25813 54.3465 9.25813 54.3465L8.09112 56.247C8.09112 56.247 6.93936 55.1951 5.51321 55.1951C3.53997 55.1951 2.60501 56.6484 2.60501 58.1321C2.60501 59.6159 3.6128 61.2283 5.51321 61.2283C7.06809 61.2283 8.24864 59.9614 8.24864 59.9614L9.54438 61.8042C9.54438 61.8042 8.08943 63.5318 5.39804 63.5318C2.1731 63.5318 -0.00169373 61.2419 -0.00169373 58.1897C-0.00169373 55.1375 2.30183 52.8916 5.39804 52.8916L5.39973 52.8933Z" fill="#F5D2B2"/>
<path d="M13.9499 53.0654H16.4702V57.183H20.2134V53.0654H22.7337V63.3601H20.2134V59.329H16.4702V63.3601H13.9499V53.0654Z" fill="#F5D2B2"/>
<path d="M28.0302 53.0654H30.5505V63.3601H28.0302V53.0654Z" fill="#F5D2B2"/>
<path d="M35.8486 53.0654H38.3977L41.2483 57.874C41.6514 58.5515 42.1121 59.6305 42.1121 59.6305H42.1409C42.1409 59.6305 42.0257 58.5211 42.0257 57.874V53.0654H44.5461V63.3601H42.0122L39.1463 58.5651C38.7432 57.8876 38.2825 56.8087 38.2825 56.8087H38.2537C38.2537 56.8087 38.3689 57.9181 38.3689 58.5651V63.3601H35.8486V53.0654Z" fill="#F5D2B2"/>
<path d="M49.8425 53.0654H52.3916L55.2422 57.874C55.6453 58.5515 56.106 59.6305 56.106 59.6305H56.1348C56.1348 59.6305 56.0196 58.5211 56.0196 57.874V53.0654H58.54V63.3601H56.0061L53.1402 58.5651C52.7371 57.8876 52.2764 56.8087 52.2764 56.8087H52.2476C52.2476 56.8087 52.3628 57.9181 52.3628 58.5651V63.3601H49.8425V53.0654Z" fill="#F5D2B2"/>
<path d="M63.8364 53.0654H66.3567V63.3601H63.8364V53.0654Z" fill="#F5D2B2"/>
<path d="M77.8286 53.0654H80.3777L83.2283 57.874C83.6314 58.5515 84.0921 59.6305 84.0921 59.6305H84.1209C84.1209 59.6305 84.0058 58.5211 84.0058 57.874V53.0654H86.5261V63.3601H83.9922L81.1264 58.5651C80.7232 57.8876 80.2625 56.8087 80.2625 56.8087H80.2337C80.2337 56.8087 80.3489 57.9181 80.3489 58.5651V63.3601H77.8286V53.0654Z" fill="#F5D2B2"/>
<path d="M96.9766 61.2006H93.7652L93.1453 63.3601H90.5539L94.0532 53.0654H96.7022L100.202 63.3601H97.6101L96.9766 61.2006ZM95.3642 55.413C95.3642 55.413 95.1338 56.536 94.9475 57.1847L94.3564 59.1867H96.3872L95.8113 57.1847C95.6233 56.536 95.3947 55.413 95.3947 55.413H95.3659H95.3642Z" fill="#F5D2B2"/>
<path d="M104.766 53.0654H107.502L108.999 57.4133C109.229 58.0756 109.517 59.1122 109.517 59.1122H109.546C109.546 59.1122 109.834 58.0756 110.064 57.4133L111.562 53.0654H114.297L115.132 63.3601H112.612L112.295 58.7243C112.237 57.9469 112.295 56.9967 112.295 56.9967H112.266C112.266 56.9967 111.921 58.0773 111.69 58.7243L110.61 61.7053H108.45L107.37 58.7243C107.139 58.0756 106.794 56.9967 106.794 56.9967H106.765C106.765 56.9967 106.823 57.9469 106.765 58.7243L106.448 63.3601H103.914L104.765 53.0654H104.766Z" fill="#F5D2B2"/>
<path d="M120.113 53.0654H123.901C125.96 53.0654 127.4 53.9868 127.4 55.7585C127.4 56.6223 126.982 57.5014 126.204 57.9469V57.9757C127.385 58.3347 127.817 59.3866 127.817 60.2944C127.817 62.5404 125.945 63.3618 123.901 63.3618H120.113V53.0671V53.0654ZM123.93 57.0543C124.563 57.0543 124.837 56.5935 124.837 56.104C124.837 55.6145 124.563 55.225 123.887 55.225H122.634V57.0543H123.93ZM124.146 61.2006C124.88 61.2006 125.241 60.6959 125.241 60.12C125.241 59.5441 124.895 59.0681 124.16 59.0681H122.634V61.1989H124.146V61.2006Z" fill="#F5D2B2"/>
<path d="M132.48 53.0654H135V63.3601H132.48V53.0654Z" fill="#F5D2B2"/>
<path d="M28.418 69.4902H31.1687V69.9205H28.8974V71.6989H30.752V72.1291H28.8974V73.9415H31.294V74.3717H28.4197V69.4902H28.418Z" fill="#F5D2B2"/>
<path d="M35.8554 69.4902H36.3211L38.8144 73.0048C38.9804 73.2487 39.2175 73.6637 39.2175 73.6637H39.231C39.231 73.6637 39.1887 73.2606 39.1887 73.0048V69.4902H39.668V74.3717H39.2022L36.709 70.8571C36.543 70.6149 36.3059 70.1965 36.3059 70.1965H36.2923C36.2923 70.1965 36.3347 70.5997 36.3347 70.8571V74.3717H35.8554V69.4902Z" fill="#F5D2B2"/>
<path d="M45.6538 69.9205H43.8974V69.4902H47.8828V69.9205H46.1331V74.3717H45.6538V69.9205Z" fill="#F5D2B2"/>
<path d="M52.1121 69.4902H54.8628V69.9205H52.5915V71.6989H54.4461V72.1291H52.5915V73.9415H54.9881V74.3717H52.1138V69.4902H52.1121Z" fill="#F5D2B2"/>
<path d="M59.5494 69.4902H60.9942C61.4939 69.4902 61.7158 69.5394 61.9106 69.6223C62.3696 69.8239 62.6474 70.2897 62.6474 70.8791C62.6474 71.5397 62.273 72.0461 61.7243 72.1986V72.2121C61.7243 72.2121 61.7734 72.2748 61.8496 72.4069L62.9116 74.3717H62.3628L61.2585 72.3154H60.0288V74.3717H59.5494V69.4902ZM61.189 71.8852C61.7785 71.8852 62.1545 71.5041 62.1545 70.8927C62.1545 70.4896 61.9953 70.1915 61.7107 70.039C61.565 69.9628 61.3906 69.9205 61.0163 69.9205H60.0305V71.8852H61.1907H61.189Z" fill="#F5D2B2"/>
<path d="M67.3831 69.4902H69.0701C69.9458 69.4902 70.5776 70.0593 70.5776 70.9621C70.5776 71.8649 69.9458 72.456 69.0701 72.456H67.8625V74.3734H67.3831V69.4919V69.4902ZM69.0075 72.0241C69.6596 72.0241 70.083 71.6278 70.083 70.9621C70.083 70.2965 69.6596 69.9205 69.0142 69.9205H67.8608V72.0241H69.0075Z" fill="#F5D2B2"/>
<path d="M75.0085 69.4902H76.4533C76.9529 69.4902 77.1748 69.5394 77.3696 69.6223C77.8286 69.8239 78.1064 70.2897 78.1064 70.8791C78.1064 71.5397 77.732 72.0461 77.1833 72.1986V72.2121C77.1833 72.2121 77.2324 72.2748 77.3086 72.4069L78.3706 74.3717H77.8218L76.7175 72.3154H75.4878V74.3717H75.0085V69.4902ZM76.648 71.8852C77.2375 71.8852 77.6135 71.5041 77.6135 70.8927C77.6135 70.4896 77.4543 70.1915 77.1697 70.039C77.024 69.9628 76.8496 69.9205 76.4753 69.9205H75.4895V71.8852H76.6497H76.648Z" fill="#F5D2B2"/>
<path d="M82.8405 69.4902H83.3198V74.3717H82.8405V69.4902Z" fill="#F5D2B2"/>
<path d="M88.1335 73.4621C88.1335 73.4621 88.6399 73.9973 89.4106 73.9973C89.9458 73.9973 90.3828 73.6772 90.3828 73.1505C90.3828 71.9208 87.9455 72.2341 87.9455 70.7199C87.9455 70.0187 88.5637 69.4072 89.4665 69.4072C90.3134 69.4072 90.7724 69.8798 90.7724 69.8798L90.5369 70.2829C90.5369 70.2829 90.1067 69.8662 89.4682 69.8662C88.8296 69.8662 88.44 70.2761 88.44 70.7063C88.44 71.8666 90.8774 71.5329 90.8774 73.1369C90.8774 73.8652 90.315 74.4563 89.3987 74.4563C88.3994 74.4563 87.8506 73.8313 87.8506 73.8313L88.1352 73.4638L88.1335 73.4621Z" fill="#F5D2B2"/>
<path d="M95.4167 69.4902H98.1673V69.9205H95.896V71.6989H97.7507V72.1291H95.896V73.9415H98.2927V74.3717H95.4184V69.4902H95.4167Z" fill="#F5D2B2"/>
<path d="M102.779 73.4621C102.779 73.4621 103.286 73.9973 104.057 73.9973C104.592 73.9973 105.029 73.6772 105.029 73.1505C105.029 71.9208 102.591 72.2341 102.591 70.7199C102.591 70.0187 103.21 69.4072 104.112 69.4072C104.959 69.4072 105.418 69.8798 105.418 69.8798L105.183 70.2829C105.183 70.2829 104.753 69.8662 104.114 69.8662C103.476 69.8662 103.086 70.2761 103.086 70.7063C103.086 71.8666 105.523 71.5329 105.523 73.1369C105.523 73.8652 104.961 74.4563 104.045 74.4563C103.045 74.4563 102.497 73.8313 102.497 73.8313L102.781 73.4638L102.779 73.4621Z" fill="#F5D2B2"/>
<path d="M46.8191 26.5785C44.8425 30.5877 39.3801 29.1937 31.3025 30.6165C24.5376 31.8089 22.8489 35.6673 22.478 36.8919C22.478 36.8919 22.478 36.9105 22.4814 36.9105C22.8421 36.9037 23.1131 36.8665 23.3604 36.797L25.542 36.3905C25.857 36.3346 26.1873 36.277 26.5312 36.2161C26.5413 36.2144 26.5515 36.2076 26.5566 36.1974L27.7575 34.0599C27.7727 34.0328 27.7998 34.0142 27.832 34.0108L28.977 33.882C29.0108 33.8787 29.0413 33.8583 29.0566 33.8278L29.4444 32.9437C29.3022 32.8268 29.209 32.6507 29.209 32.4525C29.209 32.1002 29.4953 31.814 29.8476 31.814C30.1999 31.814 30.4861 32.1002 30.4861 32.4525C30.4861 32.8048 30.2219 33.0656 29.8882 33.086L29.4173 34.3123C29.3987 34.3529 29.3598 34.38 29.3157 34.3851L28.2876 34.5003C28.2622 34.5037 28.2385 34.5189 28.2266 34.5409L27.4373 36.0128C27.4289 36.0297 27.4424 36.0501 27.461 36.0467C28.5806 35.8434 29.7984 35.6182 31.0315 35.3776C31.0637 35.3709 31.0908 35.3539 31.1094 35.3268L32.4407 33.4569C32.2663 33.3265 32.1511 33.1198 32.1511 32.8844C32.1511 32.4881 32.4712 32.168 32.8675 32.168C33.2639 32.168 33.584 32.4881 33.584 32.8844C33.584 33.2808 33.2774 33.5822 32.8963 33.5975L31.9885 35.1473C31.9783 35.1659 31.9936 35.1879 32.0139 35.1829C32.8066 35.0253 33.5959 34.8627 34.3615 34.6984C34.3835 34.6934 34.4021 34.6815 34.4157 34.6646L35.4505 33.3587C35.332 33.2621 35.2541 33.1182 35.2541 32.9522C35.2541 32.6625 35.4895 32.4271 35.7791 32.4271C36.0688 32.4271 36.3042 32.6625 36.3042 32.9522C36.3042 33.2418 36.0857 33.4569 35.813 33.4738L35.1169 34.5037C35.1084 34.5155 35.1203 34.5325 35.1355 34.5291C35.6657 34.4122 36.1772 34.2936 36.665 34.1768C36.6989 34.1683 36.726 34.148 36.7446 34.1192L37.9827 32.1747C37.998 32.151 38.0217 32.1341 38.0505 32.129L38.8245 31.9884C38.8499 31.9833 38.872 31.9698 38.8889 31.9512L39.3089 31.4413C39.2141 31.3465 39.1548 31.2144 39.1548 31.0704C39.1548 30.7808 39.3902 30.5453 39.6799 30.5453C39.9695 30.5453 40.2049 30.7808 40.2049 31.0704C40.2049 31.36 39.9695 31.5955 39.6799 31.5955C39.6579 31.5955 39.6375 31.5921 39.6172 31.5887L39.2192 32.3373C39.2073 32.3593 39.1853 32.3746 39.1599 32.378L38.3638 32.4847C38.3367 32.4881 38.3113 32.505 38.2978 32.527L37.4238 33.9481C37.4119 33.9667 37.4306 33.9888 37.4509 33.9837C38.3418 33.7584 39.1209 33.5382 39.729 33.3299C39.9424 33.257 40.1575 33.1893 40.3726 33.1198L41.5701 31.4972C41.4736 31.3888 41.4126 31.2465 41.4126 31.089C41.4126 30.7486 41.6887 30.4725 42.0291 30.4725C42.3696 30.4725 42.6457 30.7486 42.6457 31.089C42.6457 31.4295 42.3696 31.7056 42.0291 31.7056C41.9682 31.7056 41.9106 31.6937 41.8564 31.6785L41.1077 32.8946C41.2466 32.8539 41.3855 32.8099 41.5244 32.7709L41.9631 32.6473C41.9631 32.6473 43.9431 32.0697 45.0999 30.3014C45.0999 30.3014 44.104 31.8817 42.6846 32.8014L43.6365 33.3045C43.7398 33.2232 43.8686 33.1724 44.0091 33.1724C44.3428 33.1724 44.6138 33.4434 44.6138 33.777C44.6138 34.1107 44.3428 34.3817 44.0091 34.3817C43.6755 34.3817 43.4045 34.1107 43.4045 33.777C43.4045 33.7313 43.4112 33.6873 43.4197 33.6432L42.207 33.1215C42.1799 33.1097 42.1494 33.108 42.1223 33.1165C41.8902 33.1825 40.7419 33.5077 39.1921 33.9312C39.1836 33.9329 39.1819 33.9464 39.1904 33.9498L41.5329 35.0846C41.6362 35.0118 41.7615 34.9678 41.897 34.9678C42.2459 34.9678 42.5288 35.2506 42.5288 35.5995C42.5288 35.9484 42.2459 36.2313 41.897 36.2313C41.5481 36.2313 41.2652 35.9484 41.2652 35.5995C41.2652 35.5114 41.2839 35.4268 41.3161 35.3505L38.523 34.1243C38.5112 34.1192 38.4976 34.1175 38.4858 34.1209L36.0061 34.778C36.0061 34.778 35.9976 34.7899 36.0061 34.7933L37.6321 35.5284C37.6507 35.5369 37.6728 35.5369 37.6931 35.5284L38.5755 35.1778C38.5959 35.1693 38.6179 35.1727 38.6348 35.1846L39.8442 35.9603C39.8916 35.9484 39.939 35.94 39.9898 35.94C40.31 35.94 40.5708 36.2008 40.5708 36.5209C40.5708 36.8411 40.31 37.1019 39.9898 37.1019C39.6697 37.1019 39.4089 36.8411 39.4089 36.5209C39.4089 36.4041 39.4444 36.294 39.5037 36.2025L38.5722 35.6707C38.5552 35.6605 38.5332 35.6571 38.5146 35.6656L37.5999 36.0128C37.5779 36.0213 37.5542 36.0196 37.5339 36.0111L35.2676 34.9796C35.2558 34.9745 35.2422 34.9728 35.2304 34.9762C34.8069 35.0846 34.3818 35.1913 33.9617 35.2946C33.9516 35.2963 33.9499 35.3099 33.96 35.315L35.4455 36.0907C35.5488 36.0314 35.669 35.9959 35.7961 35.9959C36.1924 35.9959 36.5125 36.316 36.5125 36.7123C36.5125 37.1087 36.1924 37.4288 35.7961 37.4288C35.3997 37.4288 35.0796 37.1087 35.0796 36.7123C35.0796 36.609 35.1016 36.5108 35.1423 36.4227L33.247 35.4827C33.2351 35.4776 33.2215 35.4759 33.2097 35.4793C31.8902 35.7977 30.6572 36.0704 29.7019 36.2398C29.685 36.2432 29.6816 36.2652 29.6985 36.2736L32.5508 37.6829C32.6101 37.6591 32.6745 37.6456 32.7422 37.6456C33.0335 37.6456 33.2707 37.8827 33.2707 38.1741C33.2707 38.4654 33.0335 38.7025 32.7422 38.7025C32.4509 38.7025 32.2138 38.4654 32.2138 38.1741C32.2138 38.0911 32.2341 38.0148 32.268 37.9437L28.8415 36.4024C28.8262 36.3956 28.811 36.3939 28.7957 36.3973C27.7829 36.5734 26.8242 36.7428 25.9688 36.8919L24.7087 37.1138C23.7212 37.2797 23.7144 37.1409 22.5881 37.4898C22.5762 37.4932 22.5965 37.5372 22.5965 37.5372C22.7541 37.7066 23.0234 37.9403 23.4654 38.1842C23.4654 38.1842 23.4654 38.1842 23.4671 38.1842C23.7856 38.3604 24.1921 38.5416 24.7104 38.711C32.2527 41.7869 37.2307 41.3194 40.376 39.9745C40.8926 39.7611 41.333 39.5274 41.6972 39.3038C43.2537 38.3773 44.1972 37.2865 44.6833 36.6005C48.8449 31.6463 46.8242 26.5684 46.8242 26.5684L46.8191 26.5785Z" fill="#F5D2B2"/>
</g>
<mask id="mask0_161_389" style="mask-type:alpha" maskUnits="userSpaceOnUse" x="0" y="0" width="135" height="75">
<g clip-path="url(#clip1_161_389)">
<path d="M83.1081 40.3303C81.3398 40.3303 80.0745 39.8493 79.3123 38.8889C78.5501 37.9285 78.169 36.4888 78.169 34.5681V17.6948C78.169 14.3411 77.4221 11.6887 75.9282 9.73916C74.4343 7.78794 72.2696 6.81233 69.4343 6.81233C65.5928 6.81233 62.2256 8.23001 59.3293 11.0654V39.7815H50.2304V11.0196C50.2304 8.27575 49.5749 5.39634 48.2639 2.37805C50.0932 0.792683 52.2409 0 54.7104 0C56.936 0 58.2927 2.04268 58.7805 6.12636H58.9177C63.2165 2.04268 68.064 0 73.4587 0C77.5745 0 80.896 1.34146 83.4265 4.02439C85.957 6.70732 87.2222 10.1677 87.2222 14.4038V30.4082C87.2222 33.7923 87.771 36.4448 88.8686 38.3638C87.2527 39.6748 85.332 40.3303 83.1064 40.3303H83.1081Z" fill="#F5D2B2"/>
<path d="M108.328 40.4218C104.334 40.4218 100.913 39.6833 98.0623 38.2047C95.2117 36.726 92.9793 34.5766 91.3635 31.7565C89.7476 28.9364 88.9397 25.5607 88.9397 21.6278C88.9397 17.3595 89.8086 13.6027 91.5464 10.3558C93.2842 7.10881 95.5928 4.58679 98.4739 2.78801C101.355 0.989234 104.898 0.0898438 109.106 0.0898438C114.439 0.0898438 118.403 1.41606 120.994 4.0685C123.586 6.72094 124.881 10.1949 124.881 14.4936C124.881 19.768 122.046 22.4035 116.377 22.4035H100.327C100.967 18.3503 103.374 16.3212 107.551 16.3212H113.814C116.253 16.3212 117.473 15.3151 117.473 13.3029C117.473 8.8517 114.607 6.62609 108.875 6.62609C105.613 6.62609 102.954 7.86085 100.896 10.3304C98.8381 12.7999 97.81 16.3653 97.81 21.0299C97.81 24.6274 98.8923 27.5915 101.057 29.9239C103.222 32.2562 106.162 33.4215 109.881 33.4215C112.351 33.4215 115.095 32.644 118.111 31.0892C119.087 30.5709 119.971 30.3117 120.764 30.3117C122.441 30.3117 123.736 31.4398 124.651 33.6959C120.017 38.1759 114.575 40.4167 108.327 40.4167L108.328 40.4218Z" fill="#F5D2B2"/>
<path d="M35.4234 0.0800781C28.8686 0.0800781 23.6111 2.17527 19.6477 6.36734C15.6843 10.5594 13.7026 15.4138 13.7026 20.9303C13.7026 26.4469 15.5844 31.303 19.3496 34.9446C19.7713 35.3528 20.2049 35.7356 20.6538 36.0963C20.6707 36.0354 21.9597 31.5282 26.936 29.9344C26.7971 29.7803 26.6616 29.6228 26.5295 29.4585C24.4106 26.823 23.352 23.6438 23.352 19.9243C23.352 16.2047 24.3343 12.8985 26.3008 10.4595C28.2673 8.02215 31.0484 6.80095 34.646 6.80095C36.8716 6.80095 38.8533 7.42595 40.5911 8.67595C42.3289 9.92595 43.5332 10.5509 44.2039 10.5509C45.9417 10.5509 47.6169 8.76741 49.2327 5.20034C45.4218 1.7874 40.8198 0.0800781 35.4234 0.0800781Z" fill="#F5D2B2"/>
<path d="M5.39973 52.8933C7.94885 52.8933 9.25813 54.3465 9.25813 54.3465L8.09112 56.247C8.09112 56.247 6.93936 55.1951 5.51321 55.1951C3.53997 55.1951 2.60501 56.6484 2.60501 58.1321C2.60501 59.6159 3.6128 61.2283 5.51321 61.2283C7.06809 61.2283 8.24864 59.9614 8.24864 59.9614L9.54438 61.8042C9.54438 61.8042 8.08943 63.5318 5.39804 63.5318C2.1731 63.5318 -0.00169373 61.2419 -0.00169373 58.1897C-0.00169373 55.1375 2.30183 52.8916 5.39804 52.8916L5.39973 52.8933Z" fill="#F5D2B2"/>
<path d="M13.9499 53.0654H16.4702V57.183H20.2134V53.0654H22.7337V63.3601H20.2134V59.329H16.4702V63.3601H13.9499V53.0654Z" fill="#F5D2B2"/>
<path d="M28.0302 53.0654H30.5505V63.3601H28.0302V53.0654Z" fill="#F5D2B2"/>
<path d="M35.8486 53.0654H38.3977L41.2483 57.874C41.6514 58.5515 42.1121 59.6305 42.1121 59.6305H42.1409C42.1409 59.6305 42.0257 58.5211 42.0257 57.874V53.0654H44.5461V63.3601H42.0122L39.1463 58.5651C38.7432 57.8876 38.2825 56.8087 38.2825 56.8087H38.2537C38.2537 56.8087 38.3689 57.9181 38.3689 58.5651V63.3601H35.8486V53.0654Z" fill="#F5D2B2"/>
<path d="M49.8425 53.0654H52.3916L55.2422 57.874C55.6453 58.5515 56.106 59.6305 56.106 59.6305H56.1348C56.1348 59.6305 56.0196 58.5211 56.0196 57.874V53.0654H58.54V63.3601H56.0061L53.1402 58.5651C52.7371 57.8876 52.2764 56.8087 52.2764 56.8087H52.2476C52.2476 56.8087 52.3628 57.9181 52.3628 58.5651V63.3601H49.8425V53.0654Z" fill="#F5D2B2"/>
<path d="M63.8364 53.0654H66.3567V63.3601H63.8364V53.0654Z" fill="#F5D2B2"/>
<path d="M77.8286 53.0654H80.3777L83.2283 57.874C83.6314 58.5515 84.0921 59.6305 84.0921 59.6305H84.1209C84.1209 59.6305 84.0058 58.5211 84.0058 57.874V53.0654H86.5261V63.3601H83.9922L81.1264 58.5651C80.7232 57.8876 80.2625 56.8087 80.2625 56.8087H80.2337C80.2337 56.8087 80.3489 57.9181 80.3489 58.5651V63.3601H77.8286V53.0654Z" fill="#F5D2B2"/>
<path d="M96.9766 61.2006H93.7652L93.1453 63.3601H90.5539L94.0532 53.0654H96.7022L100.202 63.3601H97.6101L96.9766 61.2006ZM95.3642 55.413C95.3642 55.413 95.1338 56.536 94.9475 57.1847L94.3564 59.1867H96.3872L95.8113 57.1847C95.6233 56.536 95.3947 55.413 95.3947 55.413H95.3659H95.3642Z" fill="#F5D2B2"/>
<path d="M104.766 53.0654H107.502L108.999 57.4133C109.229 58.0756 109.517 59.1122 109.517 59.1122H109.546C109.546 59.1122 109.834 58.0756 110.064 57.4133L111.562 53.0654H114.297L115.132 63.3601H112.612L112.295 58.7243C112.237 57.9469 112.295 56.9967 112.295 56.9967H112.266C112.266 56.9967 111.921 58.0773 111.69 58.7243L110.61 61.7053H108.45L107.37 58.7243C107.139 58.0756 106.794 56.9967 106.794 56.9967H106.765C106.765 56.9967 106.823 57.9469 106.765 58.7243L106.448 63.3601H103.914L104.765 53.0654H104.766Z" fill="#F5D2B2"/>
<path d="M120.113 53.0654H123.901C125.96 53.0654 127.4 53.9868 127.4 55.7585C127.4 56.6223 126.982 57.5014 126.204 57.9469V57.9757C127.385 58.3347 127.817 59.3866 127.817 60.2944C127.817 62.5404 125.945 63.3618 123.901 63.3618H120.113V53.0671V53.0654ZM123.93 57.0543C124.563 57.0543 124.837 56.5935 124.837 56.104C124.837 55.6145 124.563 55.225 123.887 55.225H122.634V57.0543H123.93ZM124.146 61.2006C124.88 61.2006 125.241 60.6959 125.241 60.12C125.241 59.5441 124.895 59.0681 124.16 59.0681H122.634V61.1989H124.146V61.2006Z" fill="#F5D2B2"/>
<path d="M132.48 53.0654H135V63.3601H132.48V53.0654Z" fill="#F5D2B2"/>
<path d="M28.418 69.4902H31.1687V69.9205H28.8974V71.6989H30.752V72.1291H28.8974V73.9415H31.294V74.3717H28.4197V69.4902H28.418Z" fill="#F5D2B2"/>
<path d="M35.8554 69.4902H36.3211L38.8144 73.0048C38.9804 73.2487 39.2175 73.6637 39.2175 73.6637H39.231C39.231 73.6637 39.1887 73.2606 39.1887 73.0048V69.4902H39.668V74.3717H39.2022L36.709 70.8571C36.543 70.6149 36.3059 70.1965 36.3059 70.1965H36.2923C36.2923 70.1965 36.3347 70.5997 36.3347 70.8571V74.3717H35.8554V69.4902Z" fill="#F5D2B2"/>
<path d="M45.6538 69.9205H43.8974V69.4902H47.8828V69.9205H46.1331V74.3717H45.6538V69.9205Z" fill="#F5D2B2"/>
<path d="M52.1121 69.4902H54.8628V69.9205H52.5915V71.6989H54.4461V72.1291H52.5915V73.9415H54.9881V74.3717H52.1138V69.4902H52.1121Z" fill="#F5D2B2"/>
<path d="M59.5494 69.4902H60.9942C61.4939 69.4902 61.7158 69.5394 61.9106 69.6223C62.3696 69.8239 62.6474 70.2897 62.6474 70.8791C62.6474 71.5397 62.273 72.0461 61.7243 72.1986V72.2121C61.7243 72.2121 61.7734 72.2748 61.8496 72.4069L62.9116 74.3717H62.3628L61.2585 72.3154H60.0288V74.3717H59.5494V69.4902ZM61.189 71.8852C61.7785 71.8852 62.1545 71.5041 62.1545 70.8927C62.1545 70.4896 61.9953 70.1915 61.7107 70.039C61.565 69.9628 61.3906 69.9205 61.0163 69.9205H60.0305V71.8852H61.1907H61.189Z" fill="#F5D2B2"/>
<path d="M67.3831 69.4902H69.0701C69.9458 69.4902 70.5776 70.0593 70.5776 70.9621C70.5776 71.8649 69.9458 72.456 69.0701 72.456H67.8625V74.3734H67.3831V69.4919V69.4902ZM69.0075 72.0241C69.6596 72.0241 70.083 71.6278 70.083 70.9621C70.083 70.2965 69.6596 69.9205 69.0142 69.9205H67.8608V72.0241H69.0075Z" fill="#F5D2B2"/>
<path d="M75.0085 69.4902H76.4533C76.9529 69.4902 77.1748 69.5394 77.3696 69.6223C77.8286 69.8239 78.1064 70.2897 78.1064 70.8791C78.1064 71.5397 77.732 72.0461 77.1833 72.1986V72.2121C77.1833 72.2121 77.2324 72.2748 77.3086 72.4069L78.3706 74.3717H77.8218L76.7175 72.3154H75.4878V74.3717H75.0085V69.4902ZM76.648 71.8852C77.2375 71.8852 77.6135 71.5041 77.6135 70.8927C77.6135 70.4896 77.4543 70.1915 77.1697 70.039C77.024 69.9628 76.8496 69.9205 76.4753 69.9205H75.4895V71.8852H76.6497H76.648Z" fill="#F5D2B2"/>
<path d="M82.8405 69.4902H83.3198V74.3717H82.8405V69.4902Z" fill="#F5D2B2"/>
<path d="M88.1335 73.4621C88.1335 73.4621 88.6399 73.9973 89.4106 73.9973C89.9458 73.9973 90.3828 73.6772 90.3828 73.1505C90.3828 71.9208 87.9455 72.2341 87.9455 70.7199C87.9455 70.0187 88.5637 69.4072 89.4665 69.4072C90.3134 69.4072 90.7724 69.8798 90.7724 69.8798L90.5369 70.2829C90.5369 70.2829 90.1067 69.8662 89.4682 69.8662C88.8296 69.8662 88.44 70.2761 88.44 70.7063C88.44 71.8666 90.8774 71.5329 90.8774 73.1369C90.8774 73.8652 90.315 74.4563 89.3987 74.4563C88.3994 74.4563 87.8506 73.8313 87.8506 73.8313L88.1352 73.4638L88.1335 73.4621Z" fill="#F5D2B2"/>
<path d="M95.4167 69.4902H98.1673V69.9205H95.896V71.6989H97.7507V72.1291H95.896V73.9415H98.2927V74.3717H95.4184V69.4902H95.4167Z" fill="#F5D2B2"/>
<path d="M102.779 73.4621C102.779 73.4621 103.286 73.9973 104.057 73.9973C104.592 73.9973 105.029 73.6772 105.029 73.1505C105.029 71.9208 102.591 72.2341 102.591 70.7199C102.591 70.0187 103.21 69.4072 104.112 69.4072C104.959 69.4072 105.418 69.8798 105.418 69.8798L105.183 70.2829C105.183 70.2829 104.753 69.8662 104.114 69.8662C103.476 69.8662 103.086 70.2761 103.086 70.7063C103.086 71.8666 105.523 71.5329 105.523 73.1369C105.523 73.8652 104.961 74.4563 104.045 74.4563C103.045 74.4563 102.497 73.8313 102.497 73.8313L102.781 73.4638L102.779 73.4621Z" fill="#F5D2B2"/>
<path d="M46.8191 26.5785C44.8425 30.5877 39.3801 29.1937 31.3025 30.6165C24.5376 31.8089 22.8489 35.6673 22.478 36.8919C22.478 36.8919 22.478 36.9105 22.4814 36.9105C22.8421 36.9037 23.1131 36.8665 23.3604 36.797L25.542 36.3905C25.857 36.3346 26.1873 36.277 26.5312 36.2161C26.5413 36.2144 26.5515 36.2076 26.5566 36.1974L27.7575 34.0599C27.7727 34.0328 27.7998 34.0142 27.832 34.0108L28.977 33.882C29.0108 33.8787 29.0413 33.8583 29.0566 33.8278L29.4444 32.9437C29.3022 32.8268 29.209 32.6507 29.209 32.4525C29.209 32.1002 29.4953 31.814 29.8476 31.814C30.1999 31.814 30.4861 32.1002 30.4861 32.4525C30.4861 32.8048 30.2219 33.0656 29.8882 33.086L29.4173 34.3123C29.3987 34.3529 29.3598 34.38 29.3157 34.3851L28.2876 34.5003C28.2622 34.5037 28.2385 34.5189 28.2266 34.5409L27.4373 36.0128C27.4289 36.0297 27.4424 36.0501 27.461 36.0467C28.5806 35.8434 29.7984 35.6182 31.0315 35.3776C31.0637 35.3709 31.0908 35.3539 31.1094 35.3268L32.4407 33.4569C32.2663 33.3265 32.1511 33.1198 32.1511 32.8844C32.1511 32.4881 32.4712 32.168 32.8675 32.168C33.2639 32.168 33.584 32.4881 33.584 32.8844C33.584 33.2808 33.2774 33.5822 32.8963 33.5975L31.9885 35.1473C31.9783 35.1659 31.9936 35.1879 32.0139 35.1829C32.8066 35.0253 33.5959 34.8627 34.3615 34.6984C34.3835 34.6934 34.4021 34.6815 34.4157 34.6646L35.4505 33.3587C35.332 33.2621 35.2541 33.1182 35.2541 32.9522C35.2541 32.6625 35.4895 32.4271 35.7791 32.4271C36.0688 32.4271 36.3042 32.6625 36.3042 32.9522C36.3042 33.2418 36.0857 33.4569 35.813 33.4738L35.1169 34.5037C35.1084 34.5155 35.1203 34.5325 35.1355 34.5291C35.6657 34.4122 36.1772 34.2936 36.665 34.1768C36.6989 34.1683 36.726 34.148 36.7446 34.1192L37.9827 32.1747C37.998 32.151 38.0217 32.1341 38.0505 32.129L38.8245 31.9884C38.8499 31.9833 38.872 31.9698 38.8889 31.9512L39.3089 31.4413C39.2141 31.3465 39.1548 31.2144 39.1548 31.0704C39.1548 30.7808 39.3902 30.5453 39.6799 30.5453C39.9695 30.5453 40.2049 30.7808 40.2049 31.0704C40.2049 31.36 39.9695 31.5955 39.6799 31.5955C39.6579 31.5955 39.6375 31.5921 39.6172 31.5887L39.2192 32.3373C39.2073 32.3593 39.1853 32.3746 39.1599 32.378L38.3638 32.4847C38.3367 32.4881 38.3113 32.505 38.2978 32.527L37.4238 33.9481C37.4119 33.9667 37.4306 33.9888 37.4509 33.9837C38.3418 33.7584 39.1209 33.5382 39.729 33.3299C39.9424 33.257 40.1575 33.1893 40.3726 33.1198L41.5701 31.4972C41.4736 31.3888 41.4126 31.2465 41.4126 31.089C41.4126 30.7486 41.6887 30.4725 42.0291 30.4725C42.3696 30.4725 42.6457 30.7486 42.6457 31.089C42.6457 31.4295 42.3696 31.7056 42.0291 31.7056C41.9682 31.7056 41.9106 31.6937 41.8564 31.6785L41.1077 32.8946C41.2466 32.8539 41.3855 32.8099 41.5244 32.7709L41.9631 32.6473C41.9631 32.6473 43.9431 32.0697 45.0999 30.3014C45.0999 30.3014 44.104 31.8817 42.6846 32.8014L43.6365 33.3045C43.7398 33.2232 43.8686 33.1724 44.0091 33.1724C44.3428 33.1724 44.6138 33.4434 44.6138 33.777C44.6138 34.1107 44.3428 34.3817 44.0091 34.3817C43.6755 34.3817 43.4045 34.1107 43.4045 33.777C43.4045 33.7313 43.4112 33.6873 43.4197 33.6432L42.207 33.1215C42.1799 33.1097 42.1494 33.108 42.1223 33.1165C41.8902 33.1825 40.7419 33.5077 39.1921 33.9312C39.1836 33.9329 39.1819 33.9464 39.1904 33.9498L41.5329 35.0846C41.6362 35.0118 41.7615 34.9678 41.897 34.9678C42.2459 34.9678 42.5288 35.2506 42.5288 35.5995C42.5288 35.9484 42.2459 36.2313 41.897 36.2313C41.5481 36.2313 41.2652 35.9484 41.2652 35.5995C41.2652 35.5114 41.2839 35.4268 41.3161 35.3505L38.523 34.1243C38.5112 34.1192 38.4976 34.1175 38.4858 34.1209L36.0061 34.778C36.0061 34.778 35.9976 34.7899 36.0061 34.7933L37.6321 35.5284C37.6507 35.5369 37.6728 35.5369 37.6931 35.5284L38.5755 35.1778C38.5959 35.1693 38.6179 35.1727 38.6348 35.1846L39.8442 35.9603C39.8916 35.9484 39.939 35.94 39.9898 35.94C40.31 35.94 40.5708 36.2008 40.5708 36.5209C40.5708 36.8411 40.31 37.1019 39.9898 37.1019C39.6697 37.1019 39.4089 36.8411 39.4089 36.5209C39.4089 36.4041 39.4444 36.294 39.5037 36.2025L38.5722 35.6707C38.5552 35.6605 38.5332 35.6571 38.5146 35.6656L37.5999 36.0128C37.5779 36.0213 37.5542 36.0196 37.5339 36.0111L35.2676 34.9796C35.2558 34.9745 35.2422 34.9728 35.2304 34.9762C34.8069 35.0846 34.3818 35.1913 33.9617 35.2946C33.9516 35.2963 33.9499 35.3099 33.96 35.315L35.4455 36.0907C35.5488 36.0314 35.669 35.9959 35.7961 35.9959C36.1924 35.9959 36.5125 36.316 36.5125 36.7123C36.5125 37.1087 36.1924 37.4288 35.7961 37.4288C35.3997 37.4288 35.0796 37.1087 35.0796 36.7123C35.0796 36.609 35.1016 36.5108 35.1423 36.4227L33.247 35.4827C33.2351 35.4776 33.2215 35.4759 33.2097 35.4793C31.8902 35.7977 30.6572 36.0704 29.7019 36.2398C29.685 36.2432 29.6816 36.2652 29.6985 36.2736L32.5508 37.6829C32.6101 37.6591 32.6745 37.6456 32.7422 37.6456C33.0335 37.6456 33.2707 37.8827 33.2707 38.1741C33.2707 38.4654 33.0335 38.7025 32.7422 38.7025C32.4509 38.7025 32.2138 38.4654 32.2138 38.1741C32.2138 38.0911 32.2341 38.0148 32.268 37.9437L28.8415 36.4024C28.8262 36.3956 28.811 36.3939 28.7957 36.3973C27.7829 36.5734 26.8242 36.7428 25.9688 36.8919L24.7087 37.1138C23.7212 37.2797 23.7144 37.1409 22.5881 37.4898C22.5762 37.4932 22.5965 37.5372 22.5965 37.5372C22.7541 37.7066 23.0234 37.9403 23.4654 38.1842C23.4654 38.1842 23.4654 38.1842 23.4671 38.1842C23.7856 38.3604 24.1921 38.5416 24.7104 38.711C32.2527 41.7869 37.2307 41.3194 40.376 39.9745C40.8926 39.7611 41.333 39.5274 41.6972 39.3038C43.2537 38.3773 44.1972 37.2865 44.6833 36.6005C48.8449 31.6463 46.8242 26.5684 46.8242 26.5684L46.8191 26.5785Z" fill="#F5D2B2"/>
</g>
</mask>
<g mask="url(#mask0_161_389)">
<path d="M44.4617 -5.84354C68.4455 53.7093 129.602 63.0081 157.182 60.2134L185.214 0.762184L84.6887 -52.2528C61.2865 -61.5967 20.478 -65.3964 44.4617 -5.84354Z" fill="#123A31"/>
</g>
<defs>
<clipPath id="clip0_161_389">
<rect width="135" height="74.4546" fill="white"/>
</clipPath>
<clipPath id="clip1_161_389">
<rect width="135" height="74.4546" fill="white"/>
</clipPath>
</defs>
</svg>
